<?xml version="1.0" standalone="no"?>
<!DOCTYPE svg PUBLIC "-//W3C//DTD SVG 20010904//EN"
 "http://www.w3.org/TR/2001/REC-SVG-20010904/DTD/svg10.dtd">
<svg version="1.0" xmlns="http://www.w3.org/2000/svg"
 width="512.000000pt" height="512.000000pt" viewBox="0 0 512.000000 512.000000"
 preserveAspectRatio="xMidYMid meet">
<metadata>
Created by potrace 1.14, written by Peter Selinger 2001-2017
</metadata>
<g transform="translate(0.000000,512.000000) scale(0.100000,-0.100000)"
fill="#000000" stroke="none">
<path d="M1387 5094 c-1 -1 -72 -4 -157 -8 -174 -7 -213 -11 -320 -32 -179
-37 -339 -130 -479 -280 -115 -123 -186 -251 -221 -398 -33 -140 -39 -207 -45
-524 -2 -133 -7 -246 -10 -252 -3 -5 -2 -11 3 -14 9 -5 9 -47 -1 -62 -3 -5 -2
-16 3 -24 5 -8 5 -21 -1 -31 -5 -10 -6 -20 -2 -22 5 -3 7 -58 5 -124 -3 -141
-3 -131 1 -168 1 -16 -1 -35 -6 -42 -4 -6 -3 -14 2 -17 7 -4 7 -15 1 -30 -5
-13 -6 -26 -3 -30 8 -7 8 -390 0 -402 -3 -6 -2 -16 3 -24 5 -8 5 -22 -1 -32
-6 -12 -6 -24 0 -36 6 -10 6 -24 1 -32 -5 -8 -6 -18 -3 -24 8 -13 8 -320 0
-333 -4 -6 -4 -13 0 -17 10 -10 10 -55 0 -49 -5 3 -6 -5 -2 -18 10 -29 11
-382 1 -397 -3 -6 -2 -13 3 -17 6 -3 7 -15 1 -29 -5 -15 -5 -27 3 -35 8 -8 8
-11 -2 -11 -7 0 -9 -5 -5 -12 11 -18 12 -48 2 -48 -5 0 -6 -6 -2 -12 5 -7 9
-47 10 -88 3 -98 13 -250 19 -281 3 -13 7 -40 10 -59 3 -19 11 -59 19 -87 8
-29 11 -53 8 -53 -4 0 -1 -4 6 -9 7 -4 14 -14 16 -22 1 -8 16 -43 34 -78 17
-35 28 -69 25 -74 -3 -6 -1 -7 5 -3 6 4 29 -18 53 -54 24 -33 47 -60 52 -60 5
0 7 -7 3 -15 -3 -8 0 -14 7 -12 7 1 11 -4 9 -11 -1 -8 1 -11 5 -9 5 3 31 -15
58 -40 96 -87 239 -170 335 -194 30 -7 57 -16 60 -19 3 -3 13 -5 23 -6 9 0 33
-1 53 -2 20 -1 33 -6 29 -12 -3 -6 1 -7 10 -4 8 4 23 0 32 -7 11 -9 14 -9 10
-2 -6 9 2 11 30 7 21 -3 88 -7 148 -9 61 -2 120 -6 133 -9 12 -3 22 0 22 5 0
6 5 7 10 4 10 -6 2325 -8 2447 -2 28 1 49 -2 46 -6 -3 -5 3 -5 13 1 11 5 37
10 59 10 22 0 60 3 85 6 25 3 67 9 94 12 27 3 56 7 65 10 9 2 35 8 59 14 24 6
48 7 54 4 7 -4 8 -2 4 4 -4 7 -1 12 7 12 7 0 33 10 58 22 24 12 47 21 52 20 4
-1 7 3 7 8 0 6 5 10 11 10 14 0 115 70 163 113 22 20 44 34 48 31 5 -3 7 0 6
8 -2 7 4 12 12 10 8 -2 12 0 8 3 -6 6 18 41 98 138 8 10 22 34 31 52 9 19 21
31 26 28 6 -3 7 -2 4 4 -4 6 2 29 13 51 11 23 20 46 20 52 0 6 5 8 12 4 7 -4
8 -3 4 4 -4 6 0 35 8 64 21 72 28 109 27 136 0 13 2 21 7 19 4 -3 8 23 9 56 5
218 7 246 16 240 5 -3 3 5 -4 18 -14 27 -14 26 9 54 13 15 14 17 1 8 -13 -11
-15 -7 -13 32 1 24 5 49 8 54 4 5 2 12 -3 16 -7 4 -7 15 -1 31 7 17 7 23 0 19
-7 -4 -7 3 0 19 5 14 6 26 2 26 -9 0 -7 80 3 110 4 12 3 20 -2 17 -9 -6 -8 67
2 82 3 5 1 12 -4 16 -7 4 -7 15 -1 31 6 14 6 23 2 20 -8 -5 -6 68 2 90 3 7 1
16 -4 19 -6 3 -5 16 0 31 12 31 12 37 2 30 -8 -5 -6 69 3 83 3 5 1 12 -4 16
-7 4 -7 15 -1 31 6 14 6 23 2 20 -8 -5 -6 68 2 90 3 7 1 16 -4 19 -6 3 -5 16
0 31 12 31 12 37 2 30 -8 -5 -6 69 3 83 3 5 1 12 -4 16 -7 4 -7 15 -1 31 6 14
6 23 2 20 -8 -5 -6 68 2 90 3 7 1 16 -4 19 -6 3 -5 16 0 31 12 31 12 37 2 30
-8 -5 -6 69 3 83 3 5 1 12 -5 16 -7 4 -7 12 0 26 6 10 7 19 3 19 -9 0 -8 73 1
96 3 7 2 15 -2 18 -8 5 -7 120 2 141 3 8 1 17 -4 20 -7 4 -7 13 0 24 5 10 7
21 4 23 -9 10 -11 98 -2 98 5 0 6 5 2 11 -10 17 -12 100 -3 126 5 13 4 25 -2
28 -5 4 -7 10 -4 15 9 15 12 81 4 86 -5 3 -4 16 1 29 5 14 6 25 2 25 -9 0 -8
41 1 56 3 5 2 16 -3 24 -5 9 -5 19 2 27 6 7 7 13 2 13 -5 0 -10 48 -11 106 -3
211 -18 371 -36 393 -9 11 -9 13 0 8 8 -5 9 0 3 20 -5 16 -18 61 -30 101 -13
46 -25 70 -32 66 -7 -4 -8 -2 -4 5 8 12 -43 121 -56 121 -5 0 -8 5 -8 11 0 14
-49 78 -108 141 -29 31 -50 45 -60 41 -13 -3 -14 -2 -4 4 14 11 -71 83 -148
124 -25 13 -47 26 -50 29 -14 15 -90 41 -101 35 -7 -5 -10 -4 -6 2 8 13 -121
45 -228 57 -149 17 -341 19 -1453 20 -684 1 -1244 1 -1245 0z m3187 -492 c3
-5 -1 -9 -9 -9 -8 0 -12 4 -9 9 3 4 7 8 9 8 2 0 6 -4 9 -8z m-693 -2335 c290
-33 558 -248 655 -525 13 -38 26 -86 30 -108 3 -21 8 -42 11 -47 5 -8 4 -188
-1 -227 -22 -162 -111 -336 -231 -453 -105 -103 -222 -170 -366 -209 l-84 -22
-1315 0 c-723 0 -1339 3 -1368 8 -188 27 -378 139 -503 296 -287 359 -202 900
183 1156 118 79 237 121 378 133 95 8 2539 6 2611 -2z"/>
<path d="M650 406 c0 -2 7 -7 16 -10 8 -3 12 -2 9 4 -6 10 -25 14 -25 6z"/>
<path d="M4115 300 c-3 -5 -1 -10 4 -10 6 0 11 5 11 10 0 6 -2 10 -4 10 -3 0
-8 -4 -11 -10z"/>
<path d="M1407 279 c7 -7 15 -10 18 -7 3 3 -2 9 -12 12 -14 6 -15 5 -6 -5z"/>
<path d="M2060 286 c0 -2 8 -10 18 -17 15 -13 16 -12 3 4 -13 16 -21 21 -21
13z"/>
<path d="M2127 279 c7 -7 15 -10 18 -7 3 3 -2 9 -12 12 -14 6 -15 5 -6 -5z"/>
<path d="M2367 279 c7 -7 15 -10 18 -7 3 3 -2 9 -12 12 -14 6 -15 5 -6 -5z"/>
<path d="M2551 273 c7 -12 15 -20 18 -17 3 2 -3 12 -13 22 -17 16 -18 16 -5
-5z"/>
<path d="M3020 286 c0 -2 8 -10 18 -17 15 -13 16 -12 3 4 -13 16 -21 21 -21
13z"/>
<path d="M3087 279 c7 -7 15 -10 18 -7 3 3 -2 9 -12 12 -14 6 -15 5 -6 -5z"/>
<path d="M3327 279 c7 -7 15 -10 18 -7 3 3 -2 9 -12 12 -14 6 -15 5 -6 -5z"/>
<path d="M3511 273 c7 -12 15 -20 18 -17 3 2 -3 12 -13 22 -17 16 -18 16 -5
-5z"/>
<path d="M1315 269 c-4 -6 -5 -12 -2 -15 2 -3 7 2 10 11 7 17 1 20 -8 4z"/>
<path d="M1596 253 c-6 -14 -5 -15 5 -6 7 7 10 15 7 18 -3 3 -9 -2 -12 -12z"/>
<path d="M1030 239 c0 -5 5 -7 10 -4 6 3 10 8 10 11 0 2 -4 4 -10 4 -5 0 -10
-5 -10 -11z"/>
<path d="M2175 240 c3 -5 8 -10 11 -10 2 0 4 5 4 10 0 6 -5 10 -11 10 -5 0 -7
-4 -4 -10z"/>
<path d="M3135 240 c3 -5 8 -10 11 -10 2 0 4 5 4 10 0 6 -5 10 -11 10 -5 0 -7
-4 -4 -10z"/>
</g>
</svg>
