<?xml version="1.0" standalone="no"?>
<!DOCTYPE svg PUBLIC "-//W3C//DTD SVG 20010904//EN"
 "http://www.w3.org/TR/2001/REC-SVG-20010904/DTD/svg10.dtd">
<svg version="1.0" xmlns="http://www.w3.org/2000/svg"
 width="512.000000pt" height="512.000000pt" viewBox="0 0 512.000000 512.000000"
 preserveAspectRatio="xMidYMid meet">
<metadata>
Created by potrace 1.14, written by Peter Selinger 2001-2017
</metadata>
<g transform="translate(0.000000,512.000000) scale(0.100000,-0.100000)"
fill="#000000" stroke="none">
<path d="M685 5114 c-67 -14 -152 -38 -162 -47 -7 -5 -13 -7 -13 -3 0 3 -35
-12 -77 -34 -157 -82 -275 -205 -351 -361 -84 -176 -77 12 -77 -2094 0 -1029
3 -1890 8 -1915 45 -272 254 -520 513 -611 144 -50 70 -48 2039 -48 1202 0
1859 4 1895 10 326 60 581 314 646 644 19 97 16 3790 -3 3845 -7 19 -12 37
-12 40 2 16 -74 176 -106 224 -68 103 -184 206 -301 269 -46 24 -124 52 -209
74 -30 8 -3752 14 -3790 7z m3548 -531 c76 -29 112 -50 172 -98 91 -72 153
-168 184 -283 21 -79 21 -81 21 -1653 l-1 -1574 -23 -72 c-23 -69 -66 -154
-92 -180 -7 -7 -21 -23 -31 -36 -25 -33 -107 -94 -163 -122 -113 -57 -44 -55
-1743 -55 -1258 1 -1573 3 -1617 14 -70 17 -137 46 -192 84 -47 32 -138 122
-138 135 0 5 -9 20 -20 34 -20 26 -58 117 -69 168 -3 17 -6 748 -6 1625 0
1539 1 1597 19 1650 33 97 68 153 140 226 76 76 164 127 259 150 41 10 387 12
1647 11 l1595 -2 58 -22z"/>
<path d="M1067 2136 c-55 -20 -103 -61 -134 -114 l-28 -47 -2 -350 c-2 -346
-2 -351 22 -417 28 -81 69 -142 129 -195 40 -35 68 -51 161 -94 25 -12 250
-14 1320 -16 845 -2 1305 1 1334 8 161 37 304 180 340 340 6 26 9 182 8 379
-2 328 -2 336 -25 382 -26 53 -84 104 -140 124 -55 20 -2930 19 -2985 0z"/>
</g>
</svg>
