<svg width="300" height="300" viewBox="0 0 300 300" fill="none" xmlns="http://www.w3.org/2000/svg">
<path d="M139.919 56H143.555V32.0439H139.886L133.577 36.5264V40.0459L139.836 35.7295H139.919V56ZM149.199 39.0996H152.719C152.719 36.543 154.794 34.667 157.533 34.667C160.073 34.667 161.733 36.3936 161.733 38.6016C161.733 40.4775 161.003 41.7061 157.849 44.9268L149.398 53.4434V56H165.784V52.8623H154.379V52.7793L159.824 47.3174C164.107 43.0342 165.402 41.125 165.402 38.3691C165.402 34.6006 162.231 31.5957 157.533 31.5957C152.719 31.5957 149.199 34.75 149.199 39.0996Z" fill="white"/>
<path d="M204.919 73H208.555V49.0439H204.886L198.577 53.5264V57.0459L204.836 52.7295H204.919V73Z" fill="white"/>
<path d="M234.66 94.0996H238.18C238.18 91.543 240.255 89.667 242.994 89.667C245.534 89.667 247.194 91.3936 247.194 93.6016C247.194 95.4775 246.464 96.7061 243.31 99.9268L234.859 108.443V111H251.245V107.862H239.84V107.779L245.285 102.317C249.568 98.0342 250.863 96.125 250.863 93.3691C250.863 89.6006 247.692 86.5957 242.994 86.5957C238.18 86.5957 234.66 89.75 234.66 94.0996Z" fill="white"/>
<path d="M255.056 152.093H257.961C261.165 152.093 263.141 153.62 263.124 156.359C263.107 158.684 261.148 160.344 258.227 160.344C255.222 160.344 253.18 158.833 252.997 156.492H249.428C249.66 160.609 253.097 163.448 258.227 163.448C263.224 163.448 266.909 160.576 266.909 156.359C266.909 153.006 264.552 150.864 261.032 150.549V150.466C263.971 149.852 266.079 147.843 266.079 144.838C266.079 141.269 263.074 138.596 258.193 138.596C253.512 138.596 250.241 141.269 249.942 145.452H253.429C253.611 143.062 255.537 141.65 258.193 141.65C261.016 141.65 262.46 143.111 262.46 145.353C262.46 147.594 260.601 149.204 257.861 149.204H255.056V152.093Z" fill="white"/>
<path d="M244.248 216H247.817V211.235H251.121V208.114H247.817V192.044H242.438C237.06 199.847 234.32 204.146 232.262 207.998V211.235H244.248V216ZM235.715 208.064C237.624 204.661 240.064 200.876 244.215 194.933H244.281V208.164H235.715V208.064Z" fill="white"/>
<path d="M203.426 252.448C208.605 252.448 212.225 249.045 212.225 244.147C212.225 239.565 208.921 236.245 204.339 236.245C201.981 236.245 199.989 237.158 198.91 238.769H198.827L199.558 231.182H210.83V228.044H196.553L195.374 241.856H198.628C199.641 240.097 201.351 239.184 203.492 239.184C206.48 239.184 208.589 241.292 208.589 244.247C208.589 247.235 206.497 249.344 203.459 249.344C200.786 249.344 198.761 247.717 198.495 245.343H194.942C195.158 249.526 198.645 252.448 203.426 252.448Z" fill="white"/>
<path d="M150.874 268.465C155.938 268.465 159.623 264.979 159.623 260.164C159.623 255.632 156.319 252.278 151.737 252.278C148.483 252.278 146.06 253.972 145.097 256.146H145.03C145.08 250.187 147.172 246.7 150.974 246.7C153.265 246.7 154.925 247.862 155.572 249.854H159.308C158.594 246.086 155.29 243.579 151.007 243.579C145.014 243.579 141.461 248.327 141.461 256.346C141.461 265.028 145.993 268.465 150.874 268.465ZM150.824 265.327C147.985 265.327 145.761 263.069 145.761 260.214C145.761 257.375 147.936 255.3 150.874 255.3C153.812 255.3 155.921 257.392 155.921 260.297C155.921 263.103 153.663 265.327 150.824 265.327Z" fill="white"/>
<path d="M91.1875 252H95.0889L105.498 231.265V228.044H89.1953V231.182H101.829V231.265L91.1875 252Z" fill="white"/>
<path d="M56.5088 216.448C61.8047 216.448 65.5732 213.593 65.5732 209.525C65.5732 206.487 63.415 204.08 60.2607 203.383V203.3C62.9668 202.503 64.6768 200.478 64.6768 197.971C64.6768 194.269 61.2734 191.596 56.5088 191.596C51.7607 191.596 48.3076 194.285 48.3076 197.954C48.3076 200.494 50.0508 202.536 52.7568 203.3V203.383C49.6025 204.063 47.4443 206.471 47.4443 209.525C47.4443 213.576 51.1963 216.448 56.5088 216.448ZM56.5088 202.055C53.8525 202.055 52.0098 200.494 52.0098 198.303C52.0098 196.095 53.8525 194.551 56.5088 194.551C59.1484 194.551 61.0078 196.095 61.0078 198.303C61.0078 200.494 59.1318 202.055 56.5088 202.055ZM56.5088 213.46C53.4541 213.46 51.2793 211.7 51.2793 209.26C51.2793 206.803 53.4541 205.043 56.5088 205.043C59.5635 205.043 61.7217 206.786 61.7217 209.26C61.7217 211.7 59.5635 213.46 56.5088 213.46Z" fill="white"/>
<path d="M38.9111 162.448C44.9043 162.448 48.457 157.7 48.457 149.682C48.457 140.733 43.6592 137.579 39.0273 137.579C33.9639 137.579 30.2783 141.065 30.2783 145.88C30.2783 150.479 33.7148 153.766 38.2305 153.766C41.3184 153.766 43.8418 152.205 44.8047 149.864H44.8711C44.8379 155.774 42.8457 159.36 38.9443 159.36C36.6201 159.36 34.8936 158.281 34.2793 156.256H30.5439C31.2246 159.975 34.5781 162.448 38.9111 162.448ZM39.0273 150.744C36.1221 150.744 33.9639 148.652 33.9639 145.747C33.9639 142.958 36.2217 140.75 39.0771 140.75C41.9326 140.75 44.1572 142.975 44.1572 145.83C44.1572 148.669 41.9658 150.744 39.0273 150.744Z" fill="white"/>
<path d="M50.9189 111H54.5547V87.0439H50.8857L44.5771 91.5264V95.0459L50.8359 90.7295H50.9189V111ZM69.1641 111.448C74.9248 111.448 78.3115 106.617 78.3115 98.9805C78.3115 91.3936 74.8916 86.5957 69.1641 86.5957C63.4365 86.5957 59.9834 91.4102 59.9834 98.9971C59.9834 106.634 63.3867 111.448 69.1641 111.448ZM69.1641 108.327C65.6943 108.327 63.752 104.791 63.752 98.9971C63.752 93.2861 65.7441 89.7168 69.1641 89.7168C72.584 89.7168 74.5596 93.2695 74.5596 98.9971C74.5596 104.808 72.6172 108.327 69.1641 108.327Z" fill="white"/>
<path d="M89.9189 73H93.5547V49.0439H89.8857L83.5771 53.5264V57.0459L89.8359 52.7295H89.9189V73ZM105.458 73H109.094V49.0439H105.425L99.1162 53.5264V57.0459L105.375 52.7295H105.458V73Z" fill="white"/>
</svg>
