<svg width="110" height="110" viewBox="0 0 110 110" fill="none" xmlns="http://www.w3.org/2000/svg">
<path d="M72.9356 71.4888C69.85 71.6668 66.7604 71.2152 63.8563 70.1618C60.9522 69.1084 58.2949 67.4754 56.0471 65.363C53.7993 63.2505 52.0086 60.7031 50.7846 57.877C49.5607 55.0509 48.9293 52.0056 48.9293 48.9278C48.9293 45.8501 49.5607 42.8048 50.7846 39.9786C52.0086 37.1525 53.7993 34.6051 56.0471 32.4926C58.2949 30.3802 60.9522 28.7472 63.8563 27.6938C66.7604 26.6404 69.85 26.1889 72.9356 26.3668C74.8843 26.3523 76.8255 26.6066 78.7041 27.1226C73.077 23.0893 66.3063 20.9452 59.3733 21.0011C52.4403 21.0569 45.7053 23.3099 40.1445 27.4334C34.5837 31.5568 30.4861 37.3366 28.4456 43.9348C26.405 50.533 26.5276 57.6069 28.7955 64.1311C31.0634 70.6553 35.3589 76.2908 41.0592 80.2208C46.7596 84.1508 53.5686 86.171 60.4994 85.9887C67.4302 85.8063 74.1226 83.4309 79.6066 79.2067C85.0906 74.9825 89.0812 69.129 91 62.4947C88.9029 65.2938 86.1768 67.5652 83.0399 69.127C79.9031 70.6889 76.4427 71.4977 72.9356 71.4888Z" fill="url(#paint0_linear_1_772)"/>
<path d="M96 56C96 52.5522 94.8411 49.2456 92.7782 46.8076C90.7153 44.3696 87.9174 43 85 43C87.9174 43 90.7153 41.6304 92.7782 39.1924C94.8411 36.7544 96 33.4478 96 30C96 31.7072 96.2845 33.3976 96.8373 34.9749C97.3901 36.5521 98.2004 37.9852 99.2218 39.1924C100.243 40.3996 101.456 41.3571 102.79 42.0104C104.125 42.6637 105.555 43 107 43C105.555 43 104.125 43.3363 102.79 43.9896C101.456 44.6429 100.243 45.6005 99.2218 46.8076C98.2004 48.0148 97.3901 49.4479 96.8373 51.0251C96.2845 52.6024 96 54.2928 96 56Z" fill="url(#paint1_linear_1_772)"/>
<path d="M14 89C14 85.5522 12.8411 82.2456 10.7782 79.8076C8.71527 77.3696 5.91738 76 3 76C5.91738 76 8.71527 74.6304 10.7782 72.1924C12.8411 69.7544 14 66.4478 14 63C14 64.7072 14.2845 66.3976 14.8373 67.9749C15.3901 69.5521 16.2004 70.9852 17.2218 72.1924C18.2433 73.3996 19.4559 74.3571 20.7905 75.0104C22.1251 75.6637 23.5555 76 25 76C23.5555 76 22.1251 76.3363 20.7905 76.9896C19.4559 77.6429 18.2433 78.6005 17.2218 79.8076C16.2004 81.0148 15.3901 82.4479 14.8373 84.0251C14.2845 85.6024 14 87.2928 14 89Z" fill="url(#paint2_linear_1_772)"/>
<defs>
<linearGradient id="paint0_linear_1_772" x1="59" y1="21" x2="59" y2="86" gradientUnits="userSpaceOnUse">
<stop stop-color="#FDC500"/>
<stop offset="1" stop-color="#FD8900"/>
</linearGradient>
<linearGradient id="paint1_linear_1_772" x1="96" y1="30" x2="96" y2="56" gradientUnits="userSpaceOnUse">
<stop stop-color="#FDC500"/>
<stop offset="1" stop-color="#FD8900"/>
</linearGradient>
<linearGradient id="paint2_linear_1_772" x1="14" y1="63" x2="14" y2="89" gradientUnits="userSpaceOnUse">
<stop stop-color="#FDC500"/>
<stop offset="1" stop-color="#FD8900"/>
</linearGradient>
</defs>
</svg>
